<svg width="31" height="31" viewBox="0 0 31 31" fill="none" xmlns="http://www.w3.org/2000/svg">
<path d="M2.56836 10.2727C2.56836 10.2727 3.57956 12.1507 5.53344 14.125M27.6081 10.2727C27.6081 10.2727 26.7414 12.1507 24.9394 14.125M24.9394 14.125C23.5248 15.6749 21.5339 17.2841 18.9335 18.0909M24.9394 14.125L27.6081 16.6932M18.9335 18.0909C17.8629 18.4231 16.6889 18.6193 15.4093 18.6193C14.017 18.6193 12.7319 18.3871 11.557 18.0001M18.9335 18.0909L20.5456 21.1875M11.557 18.0001C9.02937 17.1675 7.01163 15.6187 5.53344 14.125M11.557 18.0001L10.2729 21.1875M5.53344 14.125L3.2104 16.6932" stroke="white" stroke-width="2.56818"/>
</svg>
